<?xml version="1.0" encoding="utf-8" standalone="no"?>
<!DOCTYPE svg PUBLIC "-//W3C//DTD SVG 1.1//EN"
  "http://www.w3.org/Graphics/SVG/1.1/DTD/svg11.dtd">
<!-- Created with matplotlib (http://matplotlib.org/) -->
<svg height="432pt" version="1.1" viewBox="0 0 1080 432" width="1080pt" xmlns="http://www.w3.org/2000/svg" xmlns:xlink="http://www.w3.org/1999/xlink">
 <defs>
  <style type="text/css">
*{stroke-linecap:butt;stroke-linejoin:round;}
  </style>
 </defs>
 <g id="figure_1">
  <g id="patch_1">
   <path d="M 0 432 
L 1080 432 
L 1080 0 
L 0 0 
z
" style="fill:#ffffff;"/>
  </g>
  <g id="axes_1">
   <g id="patch_2">
    <path d="M 188.182263 404.2 
L 1065.7 404.2 
L 1065.7 14.3 
L 188.182263 14.3 
z
" style="fill:#ffffff;"/>
   </g>
   <g id="matplotlib.axis_1">
    <g id="xtick_1">
     <g id="line2d_1">
      <defs>
       <path d="M 0 0 
L 0 3.5 
" id="m913466c88d" style="stroke:#000000;stroke-width:0.8;"/>
      </defs>
      <g>
       <use style="stroke:#000000;stroke-width:0.8;" x="188.43675" xlink:href="#m913466c88d" y="404.2"/>
      </g>
     </g>
     <g id="text_1">
      <!-- −1 -->
      <defs>
       <path d="M 10.59375 35.5 
L 73.1875 35.5 
L 73.1875 27.203125 
L 10.59375 27.203125 
z
" id="DejaVuSans-2212"/>
       <path d="M 12.40625 8.296875 
L 28.515625 8.296875 
L 28.515625 63.921875 
L 10.984375 60.40625 
L 10.984375 69.390625 
L 28.421875 72.90625 
L 38.28125 72.90625 
L 38.28125 8.296875 
L 54.390625 8.296875 
L 54.390625 0 
L 12.40625 0 
z
" id="DejaVuSans-31"/>
      </defs>
      <g transform="translate(181.065657 418.798437)scale(0.1 -0.1)">
       <use xlink:href="#DejaVuSans-2212"/>
       <use x="83.789062" xlink:href="#DejaVuSans-31"/>
      </g>
     </g>
    </g>
    <g id="xtick_2">
     <g id="line2d_2">
      <g>
       <use style="stroke:#000000;stroke-width:0.8;" x="291.065577" xlink:href="#m913466c88d" y="404.2"/>
      </g>
     </g>
     <g id="text_2">
      <!-- 0 -->
      <defs>
       <path d="M 31.78125 66.40625 
Q 24.171875 66.40625 20.328125 58.90625 
Q 16.5 51.421875 16.5 36.375 
Q 16.5 21.390625 20.328125 13.890625 
Q 24.171875 6.390625 31.78125 6.390625 
Q 39.453125 6.390625 43.28125 13.890625 
Q 47.125 21.390625 47.125 36.375 
Q 47.125 51.421875 43.28125 58.90625 
Q 39.453125 66.40625 31.78125 66.40625 
z
M 31.78125 74.21875 
Q 44.046875 74.21875 50.515625 64.515625 
Q 56.984375 54.828125 56.984375 36.375 
Q 56.984375 17.96875 50.515625 8.265625 
Q 44.046875 -1.421875 31.78125 -1.421875 
Q 19.53125 -1.421875 13.0625 8.265625 
Q 6.59375 17.96875 6.59375 36.375 
Q 6.59375 54.828125 13.0625 64.515625 
Q 19.53125 74.21875 31.78125 74.21875 
z
" id="DejaVuSans-30"/>
      </defs>
      <g transform="translate(287.884327 418.798437)scale(0.1 -0.1)">
       <use xlink:href="#DejaVuSans-30"/>
      </g>
     </g>
    </g>
    <g id="xtick_3">
     <g id="line2d_3">
      <g>
       <use style="stroke:#000000;stroke-width:0.8;" x="393.694404" xlink:href="#m913466c88d" y="404.2"/>
      </g>
     </g>
     <g id="text_3">
      <!-- 1 -->
      <g transform="translate(390.513154 418.798437)scale(0.1 -0.1)">
       <use xlink:href="#DejaVuSans-31"/>
      </g>
     </g>
    </g>
    <g id="xtick_4">
     <g id="line2d_4">
      <g>
       <use style="stroke:#000000;stroke-width:0.8;" x="496.32323" xlink:href="#m913466c88d" y="404.2"/>
      </g>
     </g>
     <g id="text_4">
      <!-- 2 -->
      <defs>
       <path d="M 19.1875 8.296875 
L 53.609375 8.296875 
L 53.609375 0 
L 7.328125 0 
L 7.328125 8.296875 
Q 12.9375 14.109375 22.625 23.890625 
Q 32.328125 33.6875 34.8125 36.53125 
Q 39.546875 41.84375 41.421875 45.53125 
Q 43.3125 49.21875 43.3125 52.78125 
Q 43.3125 58.59375 39.234375 62.25 
Q 35.15625 65.921875 28.609375 65.921875 
Q 23.96875 65.921875 18.8125 64.3125 
Q 13.671875 62.703125 7.8125 59.421875 
L 7.8125 69.390625 
Q 13.765625 71.78125 18.9375 73 
Q 24.125 74.21875 28.421875 74.21875 
Q 39.75 74.21875 46.484375 68.546875 
Q 53.21875 62.890625 53.21875 53.421875 
Q 53.21875 48.921875 51.53125 44.890625 
Q 49.859375 40.875 45.40625 35.40625 
Q 44.1875 33.984375 37.640625 27.21875 
Q 31.109375 20.453125 19.1875 8.296875 
z
" id="DejaVuSans-32"/>
      </defs>
      <g transform="translate(493.14198 418.798437)scale(0.1 -0.1)">
       <use xlink:href="#DejaVuSans-32"/>
      </g>
     </g>
    </g>
    <g id="xtick_5">
     <g id="line2d_5">
      <g>
       <use style="stroke:#000000;stroke-width:0.8;" x="598.952057" xlink:href="#m913466c88d" y="404.2"/>
      </g>
     </g>
     <g id="text_5">
      <!-- 3 -->
      <defs>
       <path d="M 40.578125 39.3125 
Q 47.65625 37.796875 51.625 33 
Q 55.609375 28.21875 55.609375 21.1875 
Q 55.609375 10.40625 48.1875 4.484375 
Q 40.765625 -1.421875 27.09375 -1.421875 
Q 22.515625 -1.421875 17.65625 -0.515625 
Q 12.796875 0.390625 7.625 2.203125 
L 7.625 11.71875 
Q 11.71875 9.328125 16.59375 8.109375 
Q 21.484375 6.890625 26.8125 6.890625 
Q 36.078125 6.890625 40.9375 10.546875 
Q 45.796875 14.203125 45.796875 21.1875 
Q 45.796875 27.640625 41.28125 31.265625 
Q 36.765625 34.90625 28.71875 34.90625 
L 20.21875 34.90625 
L 20.21875 43.015625 
L 29.109375 43.015625 
Q 36.375 43.015625 40.234375 45.921875 
Q 44.09375 48.828125 44.09375 54.296875 
Q 44.09375 59.90625 40.109375 62.90625 
Q 36.140625 65.921875 28.71875 65.921875 
Q 24.65625 65.921875 20.015625 65.03125 
Q 15.375 64.15625 9.8125 62.3125 
L 9.8125 71.09375 
Q 15.4375 72.65625 20.34375 73.4375 
Q 25.25 74.21875 29.59375 74.21875 
Q 40.828125 74.21875 47.359375 69.109375 
Q 53.90625 64.015625 53.90625 55.328125 
Q 53.90625 49.265625 50.4375 45.09375 
Q 46.96875 40.921875 40.578125 39.3125 
z
" id="DejaVuSans-33"/>
      </defs>
      <g transform="translate(595.770807 418.798437)scale(0.1 -0.1)">
       <use xlink:href="#DejaVuSans-33"/>
      </g>
     </g>
    </g>
    <g id="xtick_6">
     <g id="line2d_6">
      <g>
       <use style="stroke:#000000;stroke-width:0.8;" x="701.580883" xlink:href="#m913466c88d" y="404.2"/>
      </g>
     </g>
     <g id="text_6">
      <!-- 4 -->
      <defs>
       <path d="M 37.796875 64.3125 
L 12.890625 25.390625 
L 37.796875 25.390625 
z
M 35.203125 72.90625 
L 47.609375 72.90625 
L 47.609375 25.390625 
L 58.015625 25.390625 
L 58.015625 17.1875 
L 47.609375 17.1875 
L 47.609375 0 
L 37.796875 0 
L 37.796875 17.1875 
L 4.890625 17.1875 
L 4.890625 26.703125 
z
" id="DejaVuSans-34"/>
      </defs>
      <g transform="translate(698.399633 418.798437)scale(0.1 -0.1)">
       <use xlink:href="#DejaVuSans-34"/>
      </g>
     </g>
    </g>
    <g id="xtick_7">
     <g id="line2d_7">
      <g>
       <use style="stroke:#000000;stroke-width:0.8;" x="804.20971" xlink:href="#m913466c88d" y="404.2"/>
      </g>
     </g>
     <g id="text_7">
      <!-- 5 -->
      <defs>
       <path d="M 10.796875 72.90625 
L 49.515625 72.90625 
L 49.515625 64.59375 
L 19.828125 64.59375 
L 19.828125 46.734375 
Q 21.96875 47.46875 24.109375 47.828125 
Q 26.265625 48.1875 28.421875 48.1875 
Q 40.625 48.1875 47.75 41.5 
Q 54.890625 34.8125 54.890625 23.390625 
Q 54.890625 11.625 47.5625 5.09375 
Q 40.234375 -1.421875 26.90625 -1.421875 
Q 22.3125 -1.421875 17.546875 -0.640625 
Q 12.796875 0.140625 7.71875 1.703125 
L 7.71875 11.625 
Q 12.109375 9.234375 16.796875 8.0625 
Q 21.484375 6.890625 26.703125 6.890625 
Q 35.15625 6.890625 40.078125 11.328125 
Q 45.015625 15.765625 45.015625 23.390625 
Q 45.015625 31 40.078125 35.4375 
Q 35.15625 39.890625 26.703125 39.890625 
Q 22.75 39.890625 18.8125 39.015625 
Q 14.890625 38.140625 10.796875 36.28125 
z
" id="DejaVuSans-35"/>
      </defs>
      <g transform="translate(801.02846 418.798437)scale(0.1 -0.1)">
       <use xlink:href="#DejaVuSans-35"/>
      </g>
     </g>
    </g>
    <g id="xtick_8">
     <g id="line2d_8">
      <g>
       <use style="stroke:#000000;stroke-width:0.8;" x="906.838537" xlink:href="#m913466c88d" y="404.2"/>
      </g>
     </g>
     <g id="text_8">
      <!-- 6 -->
      <defs>
       <path d="M 33.015625 40.375 
Q 26.375 40.375 22.484375 35.828125 
Q 18.609375 31.296875 18.609375 23.390625 
Q 18.609375 15.53125 22.484375 10.953125 
Q 26.375 6.390625 33.015625 6.390625 
Q 39.65625 6.390625 43.53125 10.953125 
Q 47.40625 15.53125 47.40625 23.390625 
Q 47.40625 31.296875 43.53125 35.828125 
Q 39.65625 40.375 33.015625 40.375 
z
M 52.59375 71.296875 
L 52.59375 62.3125 
Q 48.875 64.0625 45.09375 64.984375 
Q 41.3125 65.921875 37.59375 65.921875 
Q 27.828125 65.921875 22.671875 59.328125 
Q 17.53125 52.734375 16.796875 39.40625 
Q 19.671875 43.65625 24.015625 45.921875 
Q 28.375 48.1875 33.59375 48.1875 
Q 44.578125 48.1875 50.953125 41.515625 
Q 57.328125 34.859375 57.328125 23.390625 
Q 57.328125 12.15625 50.6875 5.359375 
Q 44.046875 -1.421875 33.015625 -1.421875 
Q 20.359375 -1.421875 13.671875 8.265625 
Q 6.984375 17.96875 6.984375 36.375 
Q 6.984375 53.65625 15.1875 63.9375 
Q 23.390625 74.21875 37.203125 74.21875 
Q 40.921875 74.21875 44.703125 73.484375 
Q 48.484375 72.75 52.59375 71.296875 
z
" id="DejaVuSans-36"/>
      </defs>
      <g transform="translate(903.657287 418.798437)scale(0.1 -0.1)">
       <use xlink:href="#DejaVuSans-36"/>
      </g>
     </g>
    </g>
    <g id="xtick_9">
     <g id="line2d_9">
      <g>
       <use style="stroke:#000000;stroke-width:0.8;" x="1009.467363" xlink:href="#m913466c88d" y="404.2"/>
      </g>
     </g>
     <g id="text_9">
      <!-- 7 -->
      <defs>
       <path d="M 8.203125 72.90625 
L 55.078125 72.90625 
L 55.078125 68.703125 
L 28.609375 0 
L 18.3125 0 
L 43.21875 64.59375 
L 8.203125 64.59375 
z
" id="DejaVuSans-37"/>
      </defs>
      <g transform="translate(1006.286113 418.798437)scale(0.1 -0.1)">
       <use xlink:href="#DejaVuSans-37"/>
      </g>
     </g>
    </g>
   </g>
  </g>
  <g id="axes_2">
   <g id="PolyCollection_1">
    <defs>
     <path d="M 199.151235 -247.067769 
L 199.151235 -247.067769 
L 221.089179 -247.067769 
L 243.027122 -247.067769 
L 264.965065 -247.067769 
L 286.903009 -247.067769 
L 308.840952 -247.067769 
L 330.778896 -247.067769 
L 352.716839 -247.067769 
L 374.654782 -247.067769 
L 396.592726 -247.067769 
L 418.530669 -247.067769 
L 440.468613 -247.067769 
L 462.406556 -247.067769 
L 484.3445 -247.067769 
L 506.282443 -247.067769 
L 528.220386 -247.067769 
L 550.15833 -247.067769 
L 572.096273 -247.067769 
L 594.034217 -247.067769 
L 615.97216 -247.067769 
L 637.910103 -247.067769 
L 659.848047 -247.067769 
L 681.78599 -247.067769 
L 703.723934 -247.067769 
L 725.661877 -247.067769 
L 747.59982 -247.067769 
L 769.537764 -247.067769 
L 791.475707 -247.067769 
L 813.413651 -247.067769 
L 835.351594 -247.067769 
L 857.289538 -247.067769 
L 879.227481 -247.067769 
L 901.165424 -247.067769 
L 923.103368 -247.067769 
L 945.041311 -247.067769 
L 966.979255 -247.067769 
L 988.917198 -247.067769 
L 1010.855141 -247.067769 
L 1032.793085 -247.067769 
L 1054.731028 -247.067769 
L 1054.731028 -247.067769 
L 1054.731028 -247.067769 
L 1032.793085 -247.067769 
L 1010.855141 -247.067769 
L 988.917198 -247.067769 
L 966.979255 -247.067769 
L 945.041311 -247.673256 
L 923.103368 -250.420101 
L 901.165424 -253.979185 
L 879.227481 -260.063594 
L 857.289538 -272.380092 
L 835.351594 -285.080557 
L 813.413651 -306.435061 
L 791.475707 -332.559623 
L 769.537764 -357.768571 
L 747.59982 -380.658945 
L 725.661877 -401.526105 
L 703.723934 -409.574656 
L 681.78599 -402.825687 
L 659.848047 -389.165303 
L 637.910103 -366.407841 
L 615.97216 -340.032223 
L 594.034217 -315.148171 
L 572.096273 -293.350628 
L 550.15833 -275.008793 
L 528.220386 -263.814662 
L 506.282443 -255.618431 
L 484.3445 -251.30618 
L 462.406556 -248.559335 
L 440.468613 -247.067769 
L 418.530669 -247.067769 
L 396.592726 -247.067769 
L 374.654782 -247.067769 
L 352.716839 -247.067769 
L 330.778896 -247.067769 
L 308.840952 -247.067769 
L 286.903009 -247.067769 
L 264.965065 -247.067769 
L 243.027122 -247.067769 
L 221.089179 -247.067769 
L 199.151235 -247.067769 
z
" id="m6a0533cbb3" style="stroke:#ffffff;stroke-width:1.5;"/>
    </defs>
    <g clip-path="url(#pbc6a8cf4ff)">
     <use style="fill:#ffffff;stroke:#ffffff;stroke-width:1.5;" x="0" xlink:href="#m6a0533cbb3" y="432"/>
    </g>
   </g>
   <g id="line2d_10">
    <path clip-path="url(#pbc6a8cf4ff)" d="M 199.151235 184.932231 
L 221.089179 184.932231 
L 243.027122 184.932231 
L 264.965065 184.932231 
L 286.903009 184.932231 
L 308.840952 184.932231 
L 330.778896 184.932231 
L 352.716839 184.932231 
L 374.654782 184.932231 
L 396.592726 184.932231 
L 418.530669 184.932231 
L 440.468613 184.932231 
L 462.406556 184.932231 
L 484.3445 184.932231 
L 506.282443 184.932231 
L 528.220386 184.932231 
L 550.15833 184.932231 
L 572.096273 184.932231 
L 594.034217 184.932231 
L 615.97216 184.932231 
L 637.910103 184.932231 
L 659.848047 184.932231 
L 681.78599 184.932231 
L 703.723934 184.932231 
L 725.661877 184.932231 
L 747.59982 184.932231 
L 769.537764 184.932231 
L 791.475707 184.932231 
L 813.413651 184.932231 
L 835.351594 184.932231 
L 857.289538 184.932231 
L 879.227481 184.932231 
L 901.165424 184.932231 
L 923.103368 184.932231 
L 945.041311 184.932231 
L 966.979255 184.932231 
L 988.917198 184.932231 
L 1010.855141 184.932231 
L 1032.793085 184.932231 
L 1054.731028 184.932231 
" style="fill:none;stroke:#ffffff;stroke-linecap:square;stroke-width:1.5;"/>
   </g>
   <g id="line2d_11">
    <path clip-path="url(#pbc6a8cf4ff)" d="M 199.151235 184.932231 
L 221.089179 184.932231 
L 243.027122 184.932231 
L 264.965065 184.932231 
L 286.903009 184.932231 
L 308.840952 184.932231 
L 330.778896 184.932231 
L 352.716839 184.932231 
L 374.654782 184.932231 
L 396.592726 184.932231 
L 418.530669 184.932231 
L 440.468613 184.932231 
L 462.406556 183.440665 
L 484.3445 180.69382 
L 506.282443 176.381569 
L 528.220386 168.185338 
L 550.15833 156.991207 
L 572.096273 138.649372 
L 594.034217 116.851829 
L 615.97216 91.967777 
L 637.910103 65.592159 
L 659.848047 42.834697 
L 681.78599 29.174313 
L 703.723934 22.425344 
L 725.661877 30.473895 
L 747.59982 51.341055 
L 769.537764 74.231429 
L 791.475707 99.440377 
L 813.413651 125.564939 
L 835.351594 146.919443 
L 857.289538 159.619908 
L 879.227481 171.936406 
L 901.165424 178.020815 
L 923.103368 181.579899 
L 945.041311 184.326744 
L 966.979255 184.932231 
L 988.917198 184.932231 
L 1010.855141 184.932231 
L 1032.793085 184.932231 
L 1054.731028 184.932231 
" style="fill:none;stroke:#000000;stroke-linecap:square;stroke-width:1.5;"/>
   </g>
   <g id="matplotlib.axis_2">
    <g id="ytick_1">
     <g id="line2d_12"/>
     <g id="text_10">
      <!-- 01. Governments -->
      <defs>
       <path d="M 10.6875 12.40625 
L 21 12.40625 
L 21 0 
L 10.6875 0 
z
" id="DejaVuSans-2e"/>
       <path id="DejaVuSans-20"/>
       <path d="M 59.515625 10.40625 
L 59.515625 29.984375 
L 43.40625 29.984375 
L 43.40625 38.09375 
L 69.28125 38.09375 
L 69.28125 6.78125 
Q 63.578125 2.734375 56.6875 0.65625 
Q 49.8125 -1.421875 42 -1.421875 
Q 24.90625 -1.421875 15.25 8.5625 
Q 5.609375 18.5625 5.609375 36.375 
Q 5.609375 54.25 15.25 64.234375 
Q 24.90625 74.21875 42 74.21875 
Q 49.125 74.21875 55.546875 72.453125 
Q 61.96875 70.703125 67.390625 67.28125 
L 67.390625 56.78125 
Q 61.921875 61.421875 55.765625 63.765625 
Q 49.609375 66.109375 42.828125 66.109375 
Q 29.4375 66.109375 22.71875 58.640625 
Q 16.015625 51.171875 16.015625 36.375 
Q 16.015625 21.625 22.71875 14.15625 
Q 29.4375 6.6875 42.828125 6.6875 
Q 48.046875 6.6875 52.140625 7.59375 
Q 56.25 8.5 59.515625 10.40625 
z
" id="DejaVuSans-47"/>
       <path d="M 30.609375 48.390625 
Q 23.390625 48.390625 19.1875 42.75 
Q 14.984375 37.109375 14.984375 27.296875 
Q 14.984375 17.484375 19.15625 11.84375 
Q 23.34375 6.203125 30.609375 6.203125 
Q 37.796875 6.203125 41.984375 11.859375 
Q 46.1875 17.53125 46.1875 27.296875 
Q 46.1875 37.015625 41.984375 42.703125 
Q 37.796875 48.390625 30.609375 48.390625 
z
M 30.609375 56 
Q 42.328125 56 49.015625 48.375 
Q 55.71875 40.765625 55.71875 27.296875 
Q 55.71875 13.875 49.015625 6.21875 
Q 42.328125 -1.421875 30.609375 -1.421875 
Q 18.84375 -1.421875 12.171875 6.21875 
Q 5.515625 13.875 5.515625 27.296875 
Q 5.515625 40.765625 12.171875 48.375 
Q 18.84375 56 30.609375 56 
z
" id="DejaVuSans-6f"/>
       <path d="M 2.984375 54.6875 
L 12.5 54.6875 
L 29.59375 8.796875 
L 46.6875 54.6875 
L 56.203125 54.6875 
L 35.6875 0 
L 23.484375 0 
z
" id="DejaVuSans-76"/>
       <path d="M 56.203125 29.59375 
L 56.203125 25.203125 
L 14.890625 25.203125 
Q 15.484375 15.921875 20.484375 11.0625 
Q 25.484375 6.203125 34.421875 6.203125 
Q 39.59375 6.203125 44.453125 7.46875 
Q 49.3125 8.734375 54.109375 11.28125 
L 54.109375 2.78125 
Q 49.265625 0.734375 44.1875 -0.34375 
Q 39.109375 -1.421875 33.890625 -1.421875 
Q 20.796875 -1.421875 13.15625 6.1875 
Q 5.515625 13.8125 5.515625 26.8125 
Q 5.515625 40.234375 12.765625 48.109375 
Q 20.015625 56 32.328125 56 
Q 43.359375 56 49.78125 48.890625 
Q 56.203125 41.796875 56.203125 29.59375 
z
M 47.21875 32.234375 
Q 47.125 39.59375 43.09375 43.984375 
Q 39.0625 48.390625 32.421875 48.390625 
Q 24.90625 48.390625 20.390625 44.140625 
Q 15.875 39.890625 15.1875 32.171875 
z
" id="DejaVuSans-65"/>
       <path d="M 41.109375 46.296875 
Q 39.59375 47.171875 37.8125 47.578125 
Q 36.03125 48 33.890625 48 
Q 26.265625 48 22.1875 43.046875 
Q 18.109375 38.09375 18.109375 28.8125 
L 18.109375 0 
L 9.078125 0 
L 9.078125 54.6875 
L 18.109375 54.6875 
L 18.109375 46.1875 
Q 20.953125 51.171875 25.484375 53.578125 
Q 30.03125 56 36.53125 56 
Q 37.453125 56 38.578125 55.875 
Q 39.703125 55.765625 41.0625 55.515625 
z
" id="DejaVuSans-72"/>
       <path d="M 54.890625 33.015625 
L 54.890625 0 
L 45.90625 0 
L 45.90625 32.71875 
Q 45.90625 40.484375 42.875 44.328125 
Q 39.84375 48.1875 33.796875 48.1875 
Q 26.515625 48.1875 22.3125 43.546875 
Q 18.109375 38.921875 18.109375 30.90625 
L 18.109375 0 
L 9.078125 0 
L 9.078125 54.6875 
L 18.109375 54.6875 
L 18.109375 46.1875 
Q 21.34375 51.125 25.703125 53.5625 
Q 30.078125 56 35.796875 56 
Q 45.21875 56 50.046875 50.171875 
Q 54.890625 44.34375 54.890625 33.015625 
z
" id="DejaVuSans-6e"/>
       <path d="M 52 44.1875 
Q 55.375 50.25 60.0625 53.125 
Q 64.75 56 71.09375 56 
Q 79.640625 56 84.28125 50.015625 
Q 88.921875 44.046875 88.921875 33.015625 
L 88.921875 0 
L 79.890625 0 
L 79.890625 32.71875 
Q 79.890625 40.578125 77.09375 44.375 
Q 74.3125 48.1875 68.609375 48.1875 
Q 61.625 48.1875 57.5625 43.546875 
Q 53.515625 38.921875 53.515625 30.90625 
L 53.515625 0 
L 44.484375 0 
L 44.484375 32.71875 
Q 44.484375 40.625 41.703125 44.40625 
Q 38.921875 48.1875 33.109375 48.1875 
Q 26.21875 48.1875 22.15625 43.53125 
Q 18.109375 38.875 18.109375 30.90625 
L 18.109375 0 
L 9.078125 0 
L 9.078125 54.6875 
L 18.109375 54.6875 
L 18.109375 46.1875 
Q 21.1875 51.21875 25.484375 53.609375 
Q 29.78125 56 35.6875 56 
Q 41.65625 56 45.828125 52.96875 
Q 50 49.953125 52 44.1875 
z
" id="DejaVuSans-6d"/>
       <path d="M 18.3125 70.21875 
L 18.3125 54.6875 
L 36.8125 54.6875 
L 36.8125 47.703125 
L 18.3125 47.703125 
L 18.3125 18.015625 
Q 18.3125 11.328125 20.140625 9.421875 
Q 21.96875 7.515625 27.59375 7.515625 
L 36.8125 7.515625 
L 36.8125 0 
L 27.59375 0 
Q 17.1875 0 13.234375 3.875 
Q 9.28125 7.765625 9.28125 18.015625 
L 9.28125 47.703125 
L 2.6875 47.703125 
L 2.6875 54.6875 
L 9.28125 54.6875 
L 9.28125 70.21875 
z
" id="DejaVuSans-74"/>
       <path d="M 44.28125 53.078125 
L 44.28125 44.578125 
Q 40.484375 46.53125 36.375 47.5 
Q 32.28125 48.484375 27.875 48.484375 
Q 21.1875 48.484375 17.84375 46.4375 
Q 14.5 44.390625 14.5 40.28125 
Q 14.5 37.15625 16.890625 35.375 
Q 19.28125 33.59375 26.515625 31.984375 
L 29.59375 31.296875 
Q 39.15625 29.25 43.1875 25.515625 
Q 47.21875 21.78125 47.21875 15.09375 
Q 47.21875 7.46875 41.1875 3.015625 
Q 35.15625 -1.421875 24.609375 -1.421875 
Q 20.21875 -1.421875 15.453125 -0.5625 
Q 10.6875 0.296875 5.421875 2 
L 5.421875 11.28125 
Q 10.40625 8.6875 15.234375 7.390625 
Q 20.0625 6.109375 24.8125 6.109375 
Q 31.15625 6.109375 34.5625 8.28125 
Q 37.984375 10.453125 37.984375 14.40625 
Q 37.984375 18.0625 35.515625 20.015625 
Q 33.0625 21.96875 24.703125 23.78125 
L 21.578125 24.515625 
Q 13.234375 26.265625 9.515625 29.90625 
Q 5.8125 33.546875 5.8125 39.890625 
Q 5.8125 47.609375 11.28125 51.796875 
Q 16.75 56 26.8125 56 
Q 31.78125 56 36.171875 55.265625 
Q 40.578125 54.546875 44.28125 53.078125 
z
" id="DejaVuSans-73"/>
      </defs>
      <g transform="translate(91.354138 188.73145)scale(0.1 -0.1)">
       <use xlink:href="#DejaVuSans-30"/>
       <use x="63.623047" xlink:href="#DejaVuSans-31"/>
       <use x="127.246094" xlink:href="#DejaVuSans-2e"/>
       <use x="159.033203" xlink:href="#DejaVuSans-20"/>
       <use x="190.820312" xlink:href="#DejaVuSans-47"/>
       <use x="268.310547" xlink:href="#DejaVuSans-6f"/>
       <use x="329.492188" xlink:href="#DejaVuSans-76"/>
       <use x="388.671875" xlink:href="#DejaVuSans-65"/>
       <use x="450.195312" xlink:href="#DejaVuSans-72"/>
       <use x="491.292969" xlink:href="#DejaVuSans-6e"/>
       <use x="554.671875" xlink:href="#DejaVuSans-6d"/>
       <use x="652.083984" xlink:href="#DejaVuSans-65"/>
       <use x="713.607422" xlink:href="#DejaVuSans-6e"/>
       <use x="776.986328" xlink:href="#DejaVuSans-74"/>
       <use x="816.195312" xlink:href="#DejaVuSans-73"/>
      </g>
     </g>
    </g>
   </g>
  </g>
  <g id="axes_3">
   <g id="PolyCollection_2">
    <defs>
     <path d="M 199.151235 -150.434435 
L 199.151235 -150.434435 
L 221.089179 -150.434435 
L 243.027122 -150.434435 
L 264.965065 -150.434435 
L 286.903009 -150.434435 
L 308.840952 -150.434435 
L 330.778896 -150.434435 
L 352.716839 -150.434435 
L 374.654782 -150.434435 
L 396.592726 -150.434435 
L 418.530669 -150.434435 
L 440.468613 -150.434435 
L 462.406556 -150.434435 
L 484.3445 -150.434435 
L 506.282443 -150.434435 
L 528.220386 -150.434435 
L 550.15833 -150.434435 
L 572.096273 -150.434435 
L 594.034217 -150.434435 
L 615.97216 -150.434435 
L 637.910103 -150.434435 
L 659.848047 -150.434435 
L 681.78599 -150.434435 
L 703.723934 -150.434435 
L 725.661877 -150.434435 
L 747.59982 -150.434435 
L 769.537764 -150.434435 
L 791.475707 -150.434435 
L 813.413651 -150.434435 
L 835.351594 -150.434435 
L 857.289538 -150.434435 
L 879.227481 -150.434435 
L 901.165424 -150.434435 
L 923.103368 -150.434435 
L 945.041311 -150.434435 
L 966.979255 -150.434435 
L 988.917198 -150.434435 
L 1010.855141 -150.434435 
L 1032.793085 -150.434435 
L 1054.731028 -150.434435 
L 1054.731028 -150.434435 
L 1054.731028 -150.434435 
L 1032.793085 -150.434435 
L 1010.855141 -150.434435 
L 988.917198 -150.434435 
L 966.979255 -150.434435 
L 945.041311 -150.434435 
L 923.103368 -150.434435 
L 901.165424 -150.434435 
L 879.227481 -150.434435 
L 857.289538 -150.434435 
L 835.351594 -153.077904 
L 813.413651 -155.898589 
L 791.475707 -161.82055 
L 769.537764 -170.193997 
L 747.59982 -184.105437 
L 725.661877 -201.945161 
L 703.723934 -224.569711 
L 681.78599 -252.422127 
L 659.848047 -280.924335 
L 637.910103 -297.50878 
L 615.97216 -310.977181 
L 594.034217 -306.325266 
L 572.096273 -299.576298 
L 550.15833 -278.17749 
L 528.220386 -255.021292 
L 506.282443 -226.341869 
L 484.3445 -201.635033 
L 462.406556 -184.090669 
L 440.468613 -170.563196 
L 418.530669 -161.702406 
L 396.592726 -156.430236 
L 374.654782 -153.048368 
L 352.716839 -150.434435 
L 330.778896 -150.434435 
L 308.840952 -150.434435 
L 286.903009 -150.434435 
L 264.965065 -150.434435 
L 243.027122 -150.434435 
L 221.089179 -150.434435 
L 199.151235 -150.434435 
z
" id="mec3e69629e" style="stroke:#ffffff;stroke-width:1.5;"/>
    </defs>
    <g clip-path="url(#p5eced491de)">
     <use style="fill:#ffffff;stroke:#ffffff;stroke-width:1.5;" x="0" xlink:href="#mec3e69629e" y="432"/>
    </g>
   </g>
   <g id="line2d_13">
    <path clip-path="url(#p5eced491de)" d="M 199.151235 281.565565 
L 221.089179 281.565565 
L 243.027122 281.565565 
L 264.965065 281.565565 
L 286.903009 281.565565 
L 308.840952 281.565565 
L 330.778896 281.565565 
L 352.716839 281.565565 
L 374.654782 281.565565 
L 396.592726 281.565565 
L 418.530669 281.565565 
L 440.468613 281.565565 
L 462.406556 281.565565 
L 484.3445 281.565565 
L 506.282443 281.565565 
L 528.220386 281.565565 
L 550.15833 281.565565 
L 572.096273 281.565565 
L 594.034217 281.565565 
L 615.97216 281.565565 
L 637.910103 281.565565 
L 659.848047 281.565565 
L 681.78599 281.565565 
L 703.723934 281.565565 
L 725.661877 281.565565 
L 747.59982 281.565565 
L 769.537764 281.565565 
L 791.475707 281.565565 
L 813.413651 281.565565 
L 835.351594 281.565565 
L 857.289538 281.565565 
L 879.227481 281.565565 
L 901.165424 281.565565 
L 923.103368 281.565565 
L 945.041311 281.565565 
L 966.979255 281.565565 
L 988.917198 281.565565 
L 1010.855141 281.565565 
L 1032.793085 281.565565 
L 1054.731028 281.565565 
" style="fill:none;stroke:#ffffff;stroke-linecap:square;stroke-width:1.5;"/>
   </g>
   <g id="line2d_14">
    <path clip-path="url(#p5eced491de)" d="M 199.151235 281.565565 
L 221.089179 281.565565 
L 243.027122 281.565565 
L 264.965065 281.565565 
L 286.903009 281.565565 
L 308.840952 281.565565 
L 330.778896 281.565565 
L 352.716839 281.565565 
L 374.654782 278.951632 
L 396.592726 275.569764 
L 418.530669 270.297594 
L 440.468613 261.436804 
L 462.406556 247.909331 
L 484.3445 230.364967 
L 506.282443 205.658131 
L 528.220386 176.978708 
L 550.15833 153.82251 
L 572.096273 132.423702 
L 594.034217 125.674734 
L 615.97216 121.022819 
L 637.910103 134.49122 
L 659.848047 151.075665 
L 681.78599 179.577873 
L 703.723934 207.430289 
L 725.661877 230.054839 
L 747.59982 247.894563 
L 769.537764 261.806003 
L 791.475707 270.17945 
L 813.413651 276.101411 
L 835.351594 278.922096 
L 857.289538 281.565565 
L 879.227481 281.565565 
L 901.165424 281.565565 
L 923.103368 281.565565 
L 945.041311 281.565565 
L 966.979255 281.565565 
L 988.917198 281.565565 
L 1010.855141 281.565565 
L 1032.793085 281.565565 
L 1054.731028 281.565565 
" style="fill:none;stroke:#000000;stroke-linecap:square;stroke-width:1.5;"/>
   </g>
   <g id="matplotlib.axis_3">
    <g id="ytick_2">
     <g id="line2d_15"/>
     <g id="text_11">
      <!-- 02. Researchers and companies -->
      <defs>
       <path d="M 44.390625 34.1875 
Q 47.5625 33.109375 50.5625 29.59375 
Q 53.5625 26.078125 56.59375 19.921875 
L 66.609375 0 
L 56 0 
L 46.6875 18.703125 
Q 43.0625 26.03125 39.671875 28.421875 
Q 36.28125 30.8125 30.421875 30.8125 
L 19.671875 30.8125 
L 19.671875 0 
L 9.8125 0 
L 9.8125 72.90625 
L 32.078125 72.90625 
Q 44.578125 72.90625 50.734375 67.671875 
Q 56.890625 62.453125 56.890625 51.90625 
Q 56.890625 45.015625 53.6875 40.46875 
Q 50.484375 35.9375 44.390625 34.1875 
z
M 19.671875 64.796875 
L 19.671875 38.921875 
L 32.078125 38.921875 
Q 39.203125 38.921875 42.84375 42.21875 
Q 46.484375 45.515625 46.484375 51.90625 
Q 46.484375 58.296875 42.84375 61.546875 
Q 39.203125 64.796875 32.078125 64.796875 
z
" id="DejaVuSans-52"/>
       <path d="M 34.28125 27.484375 
Q 23.390625 27.484375 19.1875 25 
Q 14.984375 22.515625 14.984375 16.5 
Q 14.984375 11.71875 18.140625 8.90625 
Q 21.296875 6.109375 26.703125 6.109375 
Q 34.1875 6.109375 38.703125 11.40625 
Q 43.21875 16.703125 43.21875 25.484375 
L 43.21875 27.484375 
z
M 52.203125 31.203125 
L 52.203125 0 
L 43.21875 0 
L 43.21875 8.296875 
Q 40.140625 3.328125 35.546875 0.953125 
Q 30.953125 -1.421875 24.3125 -1.421875 
Q 15.921875 -1.421875 10.953125 3.296875 
Q 6 8.015625 6 15.921875 
Q 6 25.140625 12.171875 29.828125 
Q 18.359375 34.515625 30.609375 34.515625 
L 43.21875 34.515625 
L 43.21875 35.40625 
Q 43.21875 41.609375 39.140625 45 
Q 35.0625 48.390625 27.6875 48.390625 
Q 23 48.390625 18.546875 47.265625 
Q 14.109375 46.140625 10.015625 43.890625 
L 10.015625 52.203125 
Q 14.9375 54.109375 19.578125 55.046875 
Q 24.21875 56 28.609375 56 
Q 40.484375 56 46.34375 49.84375 
Q 52.203125 43.703125 52.203125 31.203125 
z
" id="DejaVuSans-61"/>
       <path d="M 48.78125 52.59375 
L 48.78125 44.1875 
Q 44.96875 46.296875 41.140625 47.34375 
Q 37.3125 48.390625 33.40625 48.390625 
Q 24.65625 48.390625 19.8125 42.84375 
Q 14.984375 37.3125 14.984375 27.296875 
Q 14.984375 17.28125 19.8125 11.734375 
Q 24.65625 6.203125 33.40625 6.203125 
Q 37.3125 6.203125 41.140625 7.25 
Q 44.96875 8.296875 48.78125 10.40625 
L 48.78125 2.09375 
Q 45.015625 0.34375 40.984375 -0.53125 
Q 36.96875 -1.421875 32.421875 -1.421875 
Q 20.0625 -1.421875 12.78125 6.34375 
Q 5.515625 14.109375 5.515625 27.296875 
Q 5.515625 40.671875 12.859375 48.328125 
Q 20.21875 56 33.015625 56 
Q 37.15625 56 41.109375 55.140625 
Q 45.0625 54.296875 48.78125 52.59375 
z
" id="DejaVuSans-63"/>
       <path d="M 54.890625 33.015625 
L 54.890625 0 
L 45.90625 0 
L 45.90625 32.71875 
Q 45.90625 40.484375 42.875 44.328125 
Q 39.84375 48.1875 33.796875 48.1875 
Q 26.515625 48.1875 22.3125 43.546875 
Q 18.109375 38.921875 18.109375 30.90625 
L 18.109375 0 
L 9.078125 0 
L 9.078125 75.984375 
L 18.109375 75.984375 
L 18.109375 46.1875 
Q 21.34375 51.125 25.703125 53.5625 
Q 30.078125 56 35.796875 56 
Q 45.21875 56 50.046875 50.171875 
Q 54.890625 44.34375 54.890625 33.015625 
z
" id="DejaVuSans-68"/>
       <path d="M 45.40625 46.390625 
L 45.40625 75.984375 
L 54.390625 75.984375 
L 54.390625 0 
L 45.40625 0 
L 45.40625 8.203125 
Q 42.578125 3.328125 38.25 0.953125 
Q 33.9375 -1.421875 27.875 -1.421875 
Q 17.96875 -1.421875 11.734375 6.484375 
Q 5.515625 14.40625 5.515625 27.296875 
Q 5.515625 40.1875 11.734375 48.09375 
Q 17.96875 56 27.875 56 
Q 33.9375 56 38.25 53.625 
Q 42.578125 51.265625 45.40625 46.390625 
z
M 14.796875 27.296875 
Q 14.796875 17.390625 18.875 11.75 
Q 22.953125 6.109375 30.078125 6.109375 
Q 37.203125 6.109375 41.296875 11.75 
Q 45.40625 17.390625 45.40625 27.296875 
Q 45.40625 37.203125 41.296875 42.84375 
Q 37.203125 48.484375 30.078125 48.484375 
Q 22.953125 48.484375 18.875 42.84375 
Q 14.796875 37.203125 14.796875 27.296875 
z
" id="DejaVuSans-64"/>
       <path d="M 18.109375 8.203125 
L 18.109375 -20.796875 
L 9.078125 -20.796875 
L 9.078125 54.6875 
L 18.109375 54.6875 
L 18.109375 46.390625 
Q 20.953125 51.265625 25.265625 53.625 
Q 29.59375 56 35.59375 56 
Q 45.5625 56 51.78125 48.09375 
Q 58.015625 40.1875 58.015625 27.296875 
Q 58.015625 14.40625 51.78125 6.484375 
Q 45.5625 -1.421875 35.59375 -1.421875 
Q 29.59375 -1.421875 25.265625 0.953125 
Q 20.953125 3.328125 18.109375 8.203125 
z
M 48.6875 27.296875 
Q 48.6875 37.203125 44.609375 42.84375 
Q 40.53125 48.484375 33.40625 48.484375 
Q 26.265625 48.484375 22.1875 42.84375 
Q 18.109375 37.203125 18.109375 27.296875 
Q 18.109375 17.390625 22.1875 11.75 
Q 26.265625 6.109375 33.40625 6.109375 
Q 40.53125 6.109375 44.609375 11.75 
Q 48.6875 17.390625 48.6875 27.296875 
z
" id="DejaVuSans-70"/>
       <path d="M 9.421875 54.6875 
L 18.40625 54.6875 
L 18.40625 0 
L 9.421875 0 
z
M 9.421875 75.984375 
L 18.40625 75.984375 
L 18.40625 64.59375 
L 9.421875 64.59375 
z
" id="DejaVuSans-69"/>
      </defs>
      <g transform="translate(17.615076 285.364783)scale(0.1 -0.1)">
       <use xlink:href="#DejaVuSans-30"/>
       <use x="63.623047" xlink:href="#DejaVuSans-32"/>
       <use x="127.246094" xlink:href="#DejaVuSans-2e"/>
       <use x="159.033203" xlink:href="#DejaVuSans-20"/>
       <use x="190.820312" xlink:href="#DejaVuSans-52"/>
       <use x="260.240234" xlink:href="#DejaVuSans-65"/>
       <use x="321.763672" xlink:href="#DejaVuSans-73"/>
       <use x="373.863281" xlink:href="#DejaVuSans-65"/>
       <use x="435.386719" xlink:href="#DejaVuSans-61"/>
       <use x="496.666016" xlink:href="#DejaVuSans-72"/>
       <use x="537.748047" xlink:href="#DejaVuSans-63"/>
       <use x="592.728516" xlink:href="#DejaVuSans-68"/>
       <use x="656.107422" xlink:href="#DejaVuSans-65"/>
       <use x="717.630859" xlink:href="#DejaVuSans-72"/>
       <use x="758.744141" xlink:href="#DejaVuSans-73"/>
       <use x="810.84375" xlink:href="#DejaVuSans-20"/>
       <use x="842.630859" xlink:href="#DejaVuSans-61"/>
       <use x="903.910156" xlink:href="#DejaVuSans-6e"/>
       <use x="967.289062" xlink:href="#DejaVuSans-64"/>
       <use x="1030.765625" xlink:href="#DejaVuSans-20"/>
       <use x="1062.552734" xlink:href="#DejaVuSans-63"/>
       <use x="1117.533203" xlink:href="#DejaVuSans-6f"/>
       <use x="1178.714844" xlink:href="#DejaVuSans-6d"/>
       <use x="1276.126953" xlink:href="#DejaVuSans-70"/>
       <use x="1339.603516" xlink:href="#DejaVuSans-61"/>
       <use x="1400.882812" xlink:href="#DejaVuSans-6e"/>
       <use x="1464.261719" xlink:href="#DejaVuSans-69"/>
       <use x="1492.044922" xlink:href="#DejaVuSans-65"/>
       <use x="1553.568359" xlink:href="#DejaVuSans-73"/>
      </g>
     </g>
    </g>
   </g>
  </g>
  <g id="axes_4">
   <g id="matplotlib.axis_4">
    <g id="ytick_3">
     <g id="line2d_16"/>
     <g id="text_12">
      <!-- 03. People -->
      <defs>
       <path d="M 19.671875 64.796875 
L 19.671875 37.40625 
L 32.078125 37.40625 
Q 38.96875 37.40625 42.71875 40.96875 
Q 46.484375 44.53125 46.484375 51.125 
Q 46.484375 57.671875 42.71875 61.234375 
Q 38.96875 64.796875 32.078125 64.796875 
z
M 9.8125 72.90625 
L 32.078125 72.90625 
Q 44.34375 72.90625 50.609375 67.359375 
Q 56.890625 61.8125 56.890625 51.125 
Q 56.890625 40.328125 50.609375 34.8125 
Q 44.34375 29.296875 32.078125 29.296875 
L 19.671875 29.296875 
L 19.671875 0 
L 9.8125 0 
z
" id="DejaVuSans-50"/>
       <path d="M 9.421875 75.984375 
L 18.40625 75.984375 
L 18.40625 0 
L 9.421875 0 
z
" id="DejaVuSans-6c"/>
      </defs>
      <g transform="translate(125.524451 381.998117)scale(0.1 -0.1)">
       <use xlink:href="#DejaVuSans-30"/>
       <use x="63.623047" xlink:href="#DejaVuSans-33"/>
       <use x="127.246094" xlink:href="#DejaVuSans-2e"/>
       <use x="159.033203" xlink:href="#DejaVuSans-20"/>
       <use x="190.820312" xlink:href="#DejaVuSans-50"/>
       <use x="251.076172" xlink:href="#DejaVuSans-65"/>
       <use x="312.599609" xlink:href="#DejaVuSans-6f"/>
       <use x="373.78125" xlink:href="#DejaVuSans-70"/>
       <use x="437.257812" xlink:href="#DejaVuSans-6c"/>
       <use x="465.041016" xlink:href="#DejaVuSans-65"/>
      </g>
     </g>
    </g>
   </g>
   <g id="PolyCollection_3">
    <defs>
     <path d="M 199.151235 -53.801102 
L 199.151235 -53.801102 
L 221.089179 -53.801102 
L 243.027122 -53.801102 
L 264.965065 -53.801102 
L 286.903009 -53.801102 
L 308.840952 -53.801102 
L 330.778896 -53.801102 
L 352.716839 -53.801102 
L 374.654782 -53.801102 
L 396.592726 -53.801102 
L 418.530669 -53.801102 
L 440.468613 -53.801102 
L 462.406556 -53.801102 
L 484.3445 -53.801102 
L 506.282443 -53.801102 
L 528.220386 -53.801102 
L 550.15833 -53.801102 
L 572.096273 -53.801102 
L 594.034217 -53.801102 
L 615.97216 -53.801102 
L 637.910103 -53.801102 
L 659.848047 -53.801102 
L 681.78599 -53.801102 
L 703.723934 -53.801102 
L 725.661877 -53.801102 
L 747.59982 -53.801102 
L 769.537764 -53.801102 
L 791.475707 -53.801102 
L 813.413651 -53.801102 
L 835.351594 -53.801102 
L 857.289538 -53.801102 
L 879.227481 -53.801102 
L 901.165424 -53.801102 
L 923.103368 -53.801102 
L 945.041311 -53.801102 
L 966.979255 -53.801102 
L 988.917198 -53.801102 
L 1010.855141 -53.801102 
L 1032.793085 -53.801102 
L 1054.731028 -53.801102 
L 1054.731028 -53.801102 
L 1054.731028 -53.801102 
L 1032.793085 -53.801102 
L 1010.855141 -53.801102 
L 988.917198 -53.801102 
L 966.979255 -53.801102 
L 945.041311 -53.801102 
L 923.103368 -53.801102 
L 901.165424 -53.801102 
L 879.227481 -53.801102 
L 857.289538 -53.801102 
L 835.351594 -53.801102 
L 813.413651 -53.801102 
L 791.475707 -54.982541 
L 769.537764 -58.630232 
L 747.59982 -62.396068 
L 725.661877 -70.710443 
L 703.723934 -82.775885 
L 681.78599 -99.936281 
L 659.848047 -122.486992 
L 637.910103 -148.360498 
L 615.97216 -174.322613 
L 594.034217 -192.753056 
L 572.096273 -211.153963 
L 550.15833 -215.141318 
L 528.220386 -207.417663 
L 506.282443 -189.43026 
L 484.3445 -162.139027 
L 462.406556 -137.432191 
L 440.468613 -112.917339 
L 418.530669 -93.320225 
L 396.592726 -77.385571 
L 374.654782 -67.65347 
L 352.716839 -60.978342 
L 330.778896 -57.434026 
L 308.840952 -54.465661 
L 286.903009 -53.801102 
L 264.965065 -53.801102 
L 243.027122 -53.801102 
L 221.089179 -53.801102 
L 199.151235 -53.801102 
z
" id="mf551c84607" style="stroke:#ffffff;stroke-width:1.5;"/>
    </defs>
    <g clip-path="url(#p9234983278)">
     <use style="fill:#ffffff;stroke:#ffffff;stroke-width:1.5;" x="0" xlink:href="#mf551c84607" y="432"/>
    </g>
   </g>
   <g id="line2d_17">
    <path clip-path="url(#p9234983278)" d="M 199.151235 378.198898 
L 221.089179 378.198898 
L 243.027122 378.198898 
L 264.965065 378.198898 
L 286.903009 378.198898 
L 308.840952 378.198898 
L 330.778896 378.198898 
L 352.716839 378.198898 
L 374.654782 378.198898 
L 396.592726 378.198898 
L 418.530669 378.198898 
L 440.468613 378.198898 
L 462.406556 378.198898 
L 484.3445 378.198898 
L 506.282443 378.198898 
L 528.220386 378.198898 
L 550.15833 378.198898 
L 572.096273 378.198898 
L 594.034217 378.198898 
L 615.97216 378.198898 
L 637.910103 378.198898 
L 659.848047 378.198898 
L 681.78599 378.198898 
L 703.723934 378.198898 
L 725.661877 378.198898 
L 747.59982 378.198898 
L 769.537764 378.198898 
L 791.475707 378.198898 
L 813.413651 378.198898 
L 835.351594 378.198898 
L 857.289538 378.198898 
L 879.227481 378.198898 
L 901.165424 378.198898 
L 923.103368 378.198898 
L 945.041311 378.198898 
L 966.979255 378.198898 
L 988.917198 378.198898 
L 1010.855141 378.198898 
L 1032.793085 378.198898 
L 1054.731028 378.198898 
" style="fill:none;stroke:#ffffff;stroke-linecap:square;stroke-width:1.5;"/>
   </g>
   <g id="line2d_18">
    <path clip-path="url(#p9234983278)" d="M 199.151235 378.198898 
L 221.089179 378.198898 
L 243.027122 378.198898 
L 264.965065 378.198898 
L 286.903009 378.198898 
L 308.840952 377.534339 
L 330.778896 374.565974 
L 352.716839 371.021658 
L 374.654782 364.34653 
L 396.592726 354.614429 
L 418.530669 338.679775 
L 440.468613 319.082661 
L 462.406556 294.567809 
L 484.3445 269.860973 
L 506.282443 242.56974 
L 528.220386 224.582337 
L 550.15833 216.858682 
L 572.096273 220.846037 
L 594.034217 239.246944 
L 615.97216 257.677387 
L 637.910103 283.639502 
L 659.848047 309.513008 
L 681.78599 332.063719 
L 703.723934 349.224115 
L 725.661877 361.289557 
L 747.59982 369.603932 
L 769.537764 373.369768 
L 791.475707 377.017459 
L 813.413651 378.198898 
L 835.351594 378.198898 
L 857.289538 378.198898 
L 879.227481 378.198898 
L 901.165424 378.198898 
L 923.103368 378.198898 
L 945.041311 378.198898 
L 966.979255 378.198898 
L 988.917198 378.198898 
L 1010.855141 378.198898 
L 1032.793085 378.198898 
L 1054.731028 378.198898 
" style="fill:none;stroke:#000000;stroke-linecap:square;stroke-width:1.5;"/>
   </g>
  </g>
 </g>
 <defs>
  <clipPath id="pbc6a8cf4ff">
   <rect height="196.633333" width="877.517737" x="188.182263" y="14.3"/>
  </clipPath>
  <clipPath id="p5eced491de">
   <rect height="196.633333" width="877.517737" x="188.182263" y="110.933333"/>
  </clipPath>
  <clipPath id="p9234983278">
   <rect height="196.633333" width="877.517737" x="188.182263" y="207.566667"/>
  </clipPath>
 </defs>
</svg>
